<svg xmlns="http://www.w3.org/2000/svg" viewBox="0 0 234.36 47.86"><defs><style>.cls-1{opacity:0.85;}.cls-2{fill:#150b41;}</style></defs><g id="Layer_2" data-name="Layer 2"><g class="cls-1"><path class="cls-2" d="M367.13,250.44c-.1,8.78-5.48,17.55-17.41,17.55s-17.46-8.58-17.46-17.5,5.72-17.9,17.46-17.9S367.23,241.56,367.13,250.44Zm-28.56.14c.14,5.58,3.15,11.55,11.15,11.55s11-6,11.11-11.6-3.11-12.12-11.11-12.12S338.42,244.86,338.57,250.58Z" transform="translate(-282.82 -226.07)"/><path class="cls-2" d="M402,267.22h-7.61l-9.9-11.35h-6.15v11.35h-6.41v-34c5.39,0,10.77.05,16.15.05,8,0,12.23,5.38,12.23,11.25,0,4.66-2.14,9.36-8.59,10.67L402,266.78Zm-23.66-28V250.1H388c4.08,0,5.82-2.72,5.82-5.44s-1.79-5.43-5.82-5.43Z" transform="translate(-282.82 -226.07)"/><path class="cls-2" d="M434.45,250c.14,8.59-5.1,17.27-17,17.27H404.14v-34h13.33C429.11,233.27,434.3,241.56,434.45,250Zm-24,11.11h7c7.71,0,10.77-5.63,10.62-11.16-.14-5.28-3.25-10.57-10.62-10.57h-7Z" transform="translate(-282.82 -226.07)"/><path class="cls-2" d="M439.25,267.22v-34h6.35v34Z" transform="translate(-282.82 -226.07)"/><path class="cls-2" d="M475.72,260.82H458l-2.91,6.4h-6.94l15.23-34h7l15.23,34h-7Zm-8.88-20.42-6.3,14.45h12.61Z" transform="translate(-282.82 -226.07)"/><path class="cls-2" d="M510.78,233.22h6.4v34h-4v0l-17.84-22.94v22.89H489v-34h5.18l16.64,21Z" transform="translate(-282.82 -226.07)"/><path class="cls-2" d="M320.33,226.07H282.82v24.49l12.51-12.51c3-3.56,7.54-5.9,13.69-5.9a17.94,17.94,0,0,1,12.61,5.19l-4,4.08h0l-6,6h10.93v14.31a19.65,19.65,0,0,1-1.57,1.59l-10.59,10.6h9.94a8.26,8.26,0,0,0,8.26-8.26V234.33A8.26,8.26,0,0,0,320.33,226.07Z" transform="translate(-282.82 -226.07)"/></g><path class="cls-2" d="M309,267.85c-12.76,0-17.95-8.39-17.95-17.32a19.34,19.34,0,0,1,4.26-12.48l-12.51,12.51v23.37h27.57L321,263.33A16.71,16.71,0,0,1,309,267.85Zm-19.11-14.7h-1.8a2.86,2.86,0,0,1,0-5.72H290a21.55,21.55,0,0,0-.22,3.1A23,23,0,0,0,289.91,253.15Z" transform="translate(-282.82 -226.07)"/><path class="cls-2" d="M297.33,250.53c0,5.58,3.25,11.35,11.69,11.35a11.29,11.29,0,0,0,7.66-2.71v-6H299a12.16,12.16,0,0,1-.29-2.62,14,14,0,0,1,.35-3.1h12.57l6-6A13,13,0,0,0,309,238C301.74,238,297.33,243.55,297.33,250.53Z" transform="translate(-282.82 -226.07)"/></g></svg>